<svg width="192" height="32" viewBox="0 0 192 32" fill="none" xmlns="http://www.w3.org/2000/svg">
<g clip-path="url(#clip0_17001_116)">
<path d="M180.878 17.6569C181.082 16.0227 181.978 15.3806 183.896 15.3806H184.661C186.578 15.3806 187.473 16.0227 187.679 17.6569H180.878ZM185.045 12.3392H183.504C179.644 12.3392 177.42 14.5635 177.42 18.4238V19.7715C177.42 23.63 179.644 25.8286 183.504 25.8286H189.921C190.015 25.8174 190.103 25.7724 190.167 25.7019C190.232 25.6314 190.268 25.54 190.271 25.4446V23.7094V23.1683C190.271 22.9647 190.296 22.786 190.09 22.786H183.887C182.045 22.786 181.019 22.0372 180.921 20.5349H190.761C190.862 20.5325 190.958 20.4916 191.029 20.4204C191.101 20.3493 191.142 20.2534 191.145 20.1526V18.4156C191.145 14.5554 188.896 12.3311 185.035 12.3311" fill="white"/>
<path d="M119.779 17.6569C119.983 16.0227 120.878 15.3806 122.796 15.3806H123.562C125.479 15.3806 126.374 16.0227 126.578 17.6569H119.779ZM123.946 12.3392H122.411C118.552 12.3392 116.328 14.5635 116.328 18.4238V19.7715C116.328 23.63 118.552 25.8286 122.411 25.8286H128.831C128.926 25.8174 129.014 25.7724 129.078 25.7019C129.142 25.6314 129.179 25.54 129.181 25.4446V23.7094V23.1683C129.181 22.9647 129.206 22.786 129.001 22.786H122.794C120.954 22.786 119.926 22.0372 119.828 20.5349H129.67C129.771 20.5325 129.867 20.4915 129.938 20.4203C130.009 20.3491 130.05 20.2532 130.053 20.1526V18.4156C130.053 14.5554 127.803 12.3311 123.945 12.3311" fill="white"/>
<path d="M89.4006 17.6569C89.6043 16.0227 90.5008 15.3806 92.4169 15.3806H93.1833C95.1006 15.3806 95.9953 16.0227 96.2013 17.6569H89.4006ZM93.5673 12.3392H92.034C88.1737 12.3392 85.9512 14.5635 85.9512 18.4238V19.7715C85.9512 23.63 88.1737 25.8286 92.034 25.8286H98.4501C98.5449 25.8174 98.6325 25.7724 98.6968 25.7019C98.7612 25.6314 98.7979 25.54 98.8003 25.4446V23.7094V23.1683C98.8003 22.9647 98.8254 22.786 98.62 22.786H92.4099C90.5702 22.786 89.5436 22.0372 89.4461 20.5349H99.2859C99.3868 20.5325 99.4828 20.4916 99.5543 20.4204C99.6257 20.3493 99.6671 20.2534 99.67 20.1526V18.4156C99.67 14.5554 97.4206 12.3311 93.5603 12.3311" fill="white"/>
<path d="M73.4804 25.8359C73.6876 25.8359 73.7383 25.6807 73.7383 25.4752V18.4597C73.7383 16.257 74.193 15.4113 76.7617 15.4113H77.5262C80.1381 15.4113 80.5729 16.2576 80.5729 18.0739V25.47C80.5729 25.6772 80.5893 25.8307 80.7965 25.8307H83.7784C83.982 25.8307 84.0054 25.6737 84.0054 25.47V18.0733C84.0054 14.2854 81.9562 12.364 77.9103 12.364H76.377C75.4668 12.4351 74.5733 12.6482 73.729 12.9955V12.5391C73.729 12.3354 73.729 12.1533 73.5195 12.1533H70.5195C70.314 12.1533 70.3105 12.3337 70.3105 12.5391V25.4729C70.3105 25.6801 70.3251 25.8336 70.5271 25.8336L73.4804 25.8359Z" fill="white"/>
<path d="M47.1797 12.1405H45.6394C44.7342 12.1383 43.8357 12.2946 42.9844 12.6022V7.59679C42.9844 7.44679 42.804 7.375 42.6237 7.375H39.8893C39.7089 7.375 39.5467 7.44562 39.5391 7.58979V16.5244H43.2044C43.5832 15.4925 44.4669 15.182 46.0223 15.182H46.7927C48.9698 15.182 49.8429 16.0283 49.8429 18.2304V19.7689C49.8429 21.9716 48.9674 22.9206 46.7927 22.9206H46.0223C43.8196 22.9206 42.9739 21.9716 42.9739 19.7689V18.7096H39.5467V25.658C39.5467 25.8383 39.7037 25.8383 39.884 25.8383H48.647C51.5332 25.7554 53.245 23.1179 53.245 19.7753V18.2368C53.245 14.3678 51.0405 12.14 47.1785 12.14" fill="white"/>
<path d="M110.516 26.1536L105.925 26.1373C103.399 26.1373 101.52 24.5135 101.348 22.2735C101.345 22.224 101.352 22.1744 101.368 22.1277C101.385 22.081 101.411 22.0382 101.445 22.002C101.478 21.9658 101.519 21.937 101.565 21.9173C101.61 21.8976 101.659 21.8876 101.709 21.8877L104.442 21.8964C104.651 21.8964 104.752 22.0768 104.827 22.2863C105.061 22.9867 105.987 23.0672 106.294 23.0672L110.138 23.0818C110.499 23.0818 111.66 22.8764 111.663 21.8194C111.665 20.7624 110.503 20.7373 110.145 20.7373L105.937 20.7174C103.252 20.7064 101.321 19.0523 101.33 16.6225C101.339 14.1928 103.282 12.4739 105.935 12.4844L109.983 12.499C112.38 12.499 114.185 13.964 114.508 16.0505C114.51 16.1018 114.501 16.1528 114.482 16.2005C114.463 16.2481 114.434 16.2913 114.398 16.3275C114.362 16.3636 114.318 16.3919 114.27 16.4106C114.223 16.4294 114.172 16.4381 114.12 16.4363H111.436C111.319 16.4157 111.209 16.3701 111.112 16.3028C111.015 16.2355 110.933 16.1481 110.873 16.0465C110.702 15.8837 110.5 15.7581 110.278 15.6778C110.056 15.5974 109.82 15.5639 109.585 15.5795L106.338 15.5685C105.977 15.5685 104.767 15.5685 104.762 16.619C104.762 17.7011 105.972 17.6597 106.302 17.6597L110.538 17.6743C113.213 17.6854 115.116 19.3914 115.107 21.8427C115.098 24.2941 113.184 26.1723 110.507 26.1618" fill="white"/>
<path d="M140.059 12.3353H136.67C134.007 12.3353 132.07 14.098 132.07 16.526V25.4559C132.07 25.6578 132.07 25.8417 132.271 25.8417H135.272C135.478 25.8417 135.502 25.6613 135.502 25.4559V16.4985C135.502 15.452 136.676 15.3966 137.037 15.3966H140.06C140.213 15.3966 140.336 15.3657 140.336 15.1964V12.5554C140.336 12.3855 140.213 12.3406 140.06 12.3301" fill="white"/>
<path d="M156.447 25.4492C156.447 25.6529 156.447 25.835 156.647 25.835H159.649C159.856 25.835 159.879 25.6547 159.879 25.4475V18.7139H156.447V25.4492Z" fill="white"/>
<path d="M159.682 12.4688H156.683C156.475 12.4688 156.453 12.6491 156.453 12.8545V16.5316H159.88V12.8545C159.88 12.6526 159.88 12.4688 159.678 12.4688" fill="white"/>
<path d="M64.94 21.6366C64.94 22.6872 64.8321 22.7911 63.4319 22.7911H59.6183C59.2576 22.7911 58.0798 22.6901 58.0798 21.6366V21.2561C58.0798 20.174 59.2593 20.1284 59.6183 20.1284H63.4319C63.7926 20.1284 64.94 20.1792 64.94 21.2561V21.6366ZM68.3672 18.3897C68.3672 14.526 66.1394 12.3232 62.2722 12.3232H56.7525C56.7034 12.3247 56.6551 12.3358 56.6104 12.356C56.5656 12.3762 56.5253 12.4051 56.4918 12.441C56.4582 12.4768 56.4321 12.519 56.415 12.565C56.3978 12.611 56.39 12.66 56.3918 12.709V14.9853C56.389 15.084 56.4254 15.1798 56.4929 15.2517C56.5605 15.3237 56.6539 15.366 56.7525 15.3693H61.8969C63.6087 15.3693 64.5052 15.9104 64.8151 17.1857C64.4862 17.1227 64.1525 17.0878 63.8177 17.0812H59.236C56.5985 17.0812 54.6543 18.8216 54.6543 21.2572V21.6378C54.6543 24.0728 56.599 25.8401 59.236 25.8401H68.1577C68.1947 25.8436 68.2319 25.8357 68.2642 25.8173C68.2964 25.7989 68.3223 25.771 68.3381 25.7374C68.3709 25.6462 68.3844 25.5492 68.3778 25.4525L68.3672 18.3897Z" fill="white"/>
<path d="M154.707 12.3213H151.822C151.616 12.3213 151.513 12.5308 151.436 12.7707C151.436 12.7707 148.51 21.1753 148.424 21.1753C148.337 21.1753 145.41 12.7707 145.41 12.7707C145.332 12.5308 145.229 12.3195 145.024 12.3195H142.138C141.932 12.3195 141.855 12.5308 141.957 12.7707C141.957 12.7707 145.951 23.8286 146.781 25.6735V25.6934C146.831 25.8054 146.893 25.8253 146.928 25.8288H149.885C149.923 25.8288 149.983 25.8054 150.035 25.6916C150.843 23.9074 154.868 12.7648 154.868 12.7648C154.97 12.525 154.895 12.3154 154.687 12.3154" fill="white"/>
<path d="M165.996 16.5241C166.595 15.7572 166.997 15.6224 168.643 15.5967H169.415C170.118 15.5322 170.826 15.6514 171.469 15.9428C171.694 16.1053 171.891 16.3023 172.053 16.5264C172.207 16.736 172.233 16.9198 172.445 16.9198H175.673C175.885 16.9198 175.957 16.7301 175.885 16.5264C175.771 16.196 175.629 15.8761 175.459 15.5704C174.399 13.5341 172.474 12.4642 169.804 12.4531H168.253C165.329 12.4531 162.937 13.7156 162.327 16.5206L165.996 16.5241ZM175.656 21.5389H172.629C172.425 21.5389 172.343 21.7192 172.242 21.9287C171.801 22.733 170.92 23.0704 169.521 23.0704H168.749C166.521 23.0704 165.666 22.2153 165.666 19.9893V18.714H162.193V19.9893C162.193 23.9272 164.421 26.1474 168.359 26.1474H169.91C173.121 26.1474 175.222 24.6468 175.864 21.9282C175.914 21.7245 175.864 21.5383 175.654 21.5383" fill="white"/>
<path d="M15.8307 31.9996C19.6398 31.9989 23.3209 30.6246 26.1985 28.1289C29.0761 25.6332 30.9572 22.1834 31.4966 18.4127L0.166016 18.4092C0.704348 22.1804 2.58486 25.631 5.46235 28.1275C8.33984 30.6239 12.0212 31.9987 15.8307 31.9996Z" fill="white"/>
<path d="M9.01196 16.86C7.72208 16.86 6.47015 16.658 6.2933 16.0644C6.1433 15.5648 6.74972 15.1248 7.29427 14.7839C9.59802 13.5298 11.9854 12.4358 14.4394 11.5096C15.5886 11.0785 16.84 10.9986 18.0347 11.2802C18.9458 11.4752 26.6354 12.8876 31.5223 13.7823C31.2559 11.7196 30.5855 9.72957 29.5494 7.92609C28.5133 6.12261 27.1319 4.54104 25.4842 3.27181C23.8364 2.00258 21.9547 1.07058 19.9465 0.529114C17.9383 -0.0123546 15.8431 -0.152677 13.7807 0.11617C11.7182 0.385017 9.72897 1.05776 7.9267 2.09593C6.12443 3.13411 4.54447 4.51735 3.27716 6.16656C2.00985 7.81578 1.08005 9.69862 0.540924 11.7074C0.00179582 13.7162 -0.136084 15.8116 0.135166 17.8738H31.6C31.6361 17.5492 31.6612 17.2207 31.6776 16.8909L9.01196 16.86Z" fill="white"/>
</g>
<defs>
<clipPath id="clip0_17001_116">
<rect width="192" height="32" fill="white"/>
</clipPath>
</defs>
</svg>
