<svg width="192" height="32" viewBox="0 0 192 32" fill="none" xmlns="http://www.w3.org/2000/svg">
<g clip-path="url(#clip0_14286_917)">
<path d="M180.876 17.6569C181.08 16.0227 181.976 15.3806 183.894 15.3806H184.659C186.576 15.3806 187.471 16.0227 187.677 17.6569H180.876ZM185.043 12.3392H183.503C179.642 12.3392 177.418 14.5635 177.418 18.4238V19.7715C177.418 23.63 179.642 25.8286 183.503 25.8286H189.919C190.013 25.8174 190.101 25.7724 190.165 25.7019C190.23 25.6314 190.266 25.54 190.269 25.4446V23.7094V23.1683C190.269 22.9647 190.294 22.786 190.089 22.786H183.885C182.043 22.786 181.017 22.0372 180.919 20.5349H190.759C190.86 20.5325 190.956 20.4916 191.027 20.4204C191.099 20.3493 191.14 20.2534 191.143 20.1526V18.4156C191.143 14.5554 188.894 12.3311 185.033 12.3311" fill="#4C687B"/>
<path d="M119.779 17.6569C119.983 16.0227 120.878 15.3806 122.796 15.3806H123.562C125.479 15.3806 126.374 16.0227 126.578 17.6569H119.779ZM123.946 12.3392H122.411C118.552 12.3392 116.328 14.5635 116.328 18.4238V19.7715C116.328 23.63 118.552 25.8286 122.411 25.8286H128.831C128.926 25.8174 129.014 25.7724 129.078 25.7019C129.142 25.6314 129.179 25.54 129.181 25.4446V23.7094V23.1683C129.181 22.9647 129.206 22.786 129.001 22.786H122.794C120.954 22.786 119.926 22.0372 119.828 20.5349H129.67C129.771 20.5325 129.867 20.4915 129.938 20.4203C130.009 20.3491 130.05 20.2532 130.053 20.1526V18.4156C130.053 14.5554 127.803 12.3311 123.945 12.3311" fill="#4C687B"/>
<path d="M89.3986 17.6569C89.6023 16.0227 90.4988 15.3806 92.4149 15.3806H93.1813C95.0986 15.3806 95.9933 16.0227 96.1994 17.6569H89.3986ZM93.5653 12.3392H92.0321C88.1718 12.3392 85.9492 14.5635 85.9492 18.4238V19.7715C85.9492 23.63 88.1718 25.8286 92.0321 25.8286H98.4482C98.543 25.8174 98.6306 25.7724 98.6949 25.7019C98.7592 25.6314 98.7959 25.54 98.7984 25.4446V23.7094V23.1683C98.7984 22.9647 98.8235 22.786 98.618 22.786H92.408C90.5683 22.786 89.5416 22.0372 89.4442 20.5349H99.284C99.3848 20.5325 99.4808 20.4916 99.5523 20.4204C99.6238 20.3493 99.6652 20.2534 99.668 20.1526V18.4156C99.668 14.5554 97.4186 12.3311 93.5583 12.3311" fill="#4C687B"/>
<path d="M73.4784 25.8359C73.6856 25.8359 73.7364 25.6807 73.7364 25.4752V18.4597C73.7364 16.257 74.191 15.4113 76.7597 15.4113H77.5243C80.1361 15.4113 80.571 16.2576 80.571 18.0739V25.47C80.571 25.6772 80.5873 25.8307 80.7945 25.8307H83.7764C83.9801 25.8307 84.0034 25.6737 84.0034 25.47V18.0733C84.0034 14.2854 81.9542 12.364 77.9084 12.364H76.3751C75.4649 12.4351 74.5714 12.6482 73.7271 12.9955V12.5391C73.7271 12.3354 73.727 12.1533 73.5175 12.1533H70.5175C70.3121 12.1533 70.3086 12.3337 70.3086 12.5391V25.4729C70.3086 25.6801 70.3232 25.8336 70.5251 25.8336L73.4784 25.8359Z" fill="#4C687B"/>
<path d="M47.1777 12.1405H45.6375C44.7323 12.1383 43.8337 12.2946 42.9824 12.6022V7.59679C42.9824 7.44679 42.8021 7.375 42.6217 7.375H39.8873C39.707 7.375 39.5447 7.44562 39.5371 7.58979V16.5244H43.2025C43.5812 15.4925 44.4649 15.182 46.0203 15.182H46.7908C48.9678 15.182 49.8409 16.0283 49.8409 18.2304V19.7689C49.8409 21.9716 48.9655 22.9206 46.7908 22.9206H46.0203C43.8176 22.9206 42.9719 21.9716 42.9719 19.7689V18.7096H39.5447V25.658C39.5447 25.8383 39.7017 25.8383 39.8821 25.8383H48.645C51.5312 25.7554 53.2431 23.1179 53.2431 19.7753V18.2368C53.2431 14.3678 51.0386 12.14 47.1766 12.14" fill="#4C687B"/>
<path d="M110.518 26.1536L105.927 26.1373C103.401 26.1373 101.522 24.5135 101.35 22.2735C101.347 22.224 101.353 22.1744 101.37 22.1277C101.387 22.081 101.413 22.0382 101.447 22.002C101.48 21.9658 101.521 21.937 101.567 21.9173C101.612 21.8976 101.661 21.8876 101.711 21.8877L104.444 21.8964C104.653 21.8964 104.754 22.0768 104.829 22.2863C105.063 22.9867 105.989 23.0672 106.296 23.0672L110.14 23.0818C110.501 23.0818 111.662 22.8764 111.664 21.8194C111.667 20.7624 110.505 20.7373 110.147 20.7373L105.939 20.7174C103.254 20.7064 101.323 19.0523 101.332 16.6225C101.341 14.1928 103.284 12.4739 105.937 12.4844L109.985 12.499C112.382 12.499 114.187 13.964 114.51 16.0505C114.512 16.1018 114.503 16.1528 114.484 16.2005C114.465 16.2481 114.436 16.2913 114.4 16.3274C114.363 16.3636 114.32 16.3919 114.272 16.4106C114.225 16.4294 114.174 16.4381 114.122 16.4363H111.437C111.321 16.4157 111.211 16.3701 111.114 16.3028C111.016 16.2355 110.935 16.1481 110.875 16.0465C110.704 15.8837 110.502 15.7581 110.28 15.6778C110.058 15.5974 109.822 15.5639 109.587 15.5795L106.34 15.5685C105.979 15.5685 104.769 15.5685 104.764 16.619C104.764 17.7011 105.974 17.6597 106.304 17.6597L110.54 17.6743C113.215 17.6854 115.118 19.3914 115.109 21.8427C115.1 24.2941 113.186 26.1723 110.509 26.1618" fill="#4C687B"/>
<path d="M140.057 12.3353H136.668C134.005 12.3353 132.068 14.098 132.068 16.526V25.4559C132.068 25.6578 132.068 25.8417 132.269 25.8417H135.27C135.476 25.8417 135.5 25.6613 135.5 25.4559V16.4985C135.5 15.452 136.674 15.3966 137.035 15.3966H140.058C140.212 15.3966 140.334 15.3657 140.334 15.1964V12.5554C140.334 12.3855 140.212 12.3406 140.058 12.3301" fill="#4C687B"/>
<path d="M156.447 25.4502C156.447 25.6539 156.447 25.836 156.647 25.836H159.649C159.856 25.836 159.879 25.6557 159.879 25.4485V18.7148H156.447V25.4502Z" fill="#4C687B"/>
<path d="M159.682 12.4688H156.683C156.475 12.4688 156.453 12.6491 156.453 12.8545V16.5316H159.88V12.8545C159.88 12.6526 159.88 12.4688 159.678 12.4688" fill="#4C687B"/>
<path d="M64.9381 21.6366C64.9381 22.6872 64.8301 22.7911 63.4299 22.7911H59.6163C59.2556 22.7911 58.0778 22.6901 58.0778 21.6366V21.2561C58.0778 20.174 59.2574 20.1284 59.6163 20.1284H63.4299C63.7906 20.1284 64.9381 20.1792 64.9381 21.2561V21.6366ZM68.3653 18.3897C68.3653 14.526 66.1375 12.3232 62.2702 12.3232H56.7506C56.7015 12.3247 56.6532 12.3358 56.6084 12.356C56.5637 12.3762 56.5234 12.4051 56.4898 12.441C56.4563 12.4768 56.4302 12.519 56.413 12.565C56.3959 12.611 56.388 12.66 56.3899 12.709V14.9853C56.387 15.084 56.4234 15.1798 56.491 15.2517C56.5586 15.3237 56.6519 15.366 56.7506 15.3693H61.8949C63.6068 15.3693 64.5033 15.9104 64.8132 17.1857C64.4842 17.1227 64.1506 17.0878 63.8157 17.0812H59.234C56.5965 17.0812 54.6523 18.8216 54.6523 21.2572V21.6378C54.6523 24.0728 56.5971 25.8401 59.234 25.8401H68.1558C68.1927 25.8436 68.2299 25.8357 68.2622 25.8173C68.2945 25.7989 68.3203 25.771 68.3361 25.7374C68.3689 25.6462 68.3824 25.5492 68.3758 25.4525L68.3653 18.3897Z" fill="#4C687B"/>
<path d="M154.707 12.3213H151.822C151.616 12.3213 151.513 12.5308 151.436 12.7707C151.436 12.7707 148.51 21.1753 148.424 21.1753C148.337 21.1753 145.41 12.7707 145.41 12.7707C145.332 12.5308 145.229 12.3195 145.024 12.3195H142.138C141.932 12.3195 141.855 12.5308 141.957 12.7707C141.957 12.7707 145.951 23.8286 146.781 25.6735V25.6934C146.831 25.8054 146.893 25.8253 146.928 25.8288H149.885C149.923 25.8288 149.983 25.8054 150.035 25.6916C150.843 23.9074 154.868 12.7648 154.868 12.7648C154.97 12.525 154.895 12.3154 154.687 12.3154" fill="#4C687B"/>
<path d="M165.996 16.5241C166.595 15.7572 166.997 15.6224 168.643 15.5967H169.415C170.118 15.5322 170.826 15.6514 171.469 15.9428C171.694 16.1053 171.891 16.3023 172.053 16.5264C172.207 16.736 172.233 16.9198 172.445 16.9198H175.673C175.885 16.9198 175.957 16.7301 175.885 16.5264C175.771 16.196 175.629 15.8761 175.459 15.5704C174.399 13.5341 172.474 12.4642 169.804 12.4531H168.253C165.329 12.4531 162.937 13.7156 162.327 16.5206L165.996 16.5241ZM175.656 21.5389H172.629C172.425 21.5389 172.343 21.7192 172.242 21.9287C171.801 22.733 170.92 23.0704 169.521 23.0704H168.749C166.521 23.0704 165.666 22.2153 165.666 19.9893V18.714H162.193V19.9893C162.193 23.9272 164.421 26.1474 168.359 26.1474H169.91C173.121 26.1474 175.222 24.6468 175.864 21.9282C175.914 21.7245 175.864 21.5383 175.654 21.5383" fill="#4C687B"/>
<path d="M15.8307 32.0005C19.6398 31.9999 23.3209 30.6256 26.1985 28.1299C29.0761 25.6341 30.9572 22.1844 31.4966 18.4137L0.166016 18.4102C0.704348 22.1814 2.58486 25.632 5.46235 28.1284C8.33984 30.6249 12.0212 31.9997 15.8307 32.0005Z" fill="#5CB047"/>
<path d="M9.01196 16.8766C7.72208 16.8766 6.47015 16.6746 6.2933 16.081C6.1433 15.5814 6.74972 15.1414 7.29427 14.8005C9.59802 13.5464 11.9854 12.4524 14.4394 11.5262C15.5886 11.0951 16.84 11.0152 18.0347 11.2968C18.9458 11.4918 26.6354 12.9042 31.5223 13.7989C31.2559 11.7362 30.5855 9.74617 29.5494 7.94269C28.5133 6.13921 27.1319 4.55764 25.4842 3.28841C23.8364 2.01918 21.9547 1.08718 19.9465 0.545716C17.9383 0.00424694 15.8431 -0.136076 13.7807 0.132771C11.7182 0.401618 9.72897 1.07436 7.9267 2.11254C6.12443 3.15071 4.54447 4.53395 3.27716 6.18316C2.00985 7.83238 1.08005 9.71523 0.540924 11.724C0.00179582 13.7328 -0.136084 15.8282 0.135166 17.8904H31.6C31.6361 17.5658 31.6612 17.2373 31.6776 16.9075L9.01196 16.8766Z" fill="#4C687B"/>
</g>
<defs>
<clipPath id="clip0_14286_917">
<rect width="192" height="32" fill="white"/>
</clipPath>
</defs>
</svg>
